<?xml version="1.0" encoding="utf-8"?>
<!DOCTYPE svg PUBLIC "-//W3C//DTD SVG 1.1//EN" "http://www.w3.org/Graphics/SVG/1.1/DTD/svg11.dtd">
<svg version="1.1" id="Calque_1" xmlns="http://www.w3.org/2000/svg" xmlns:xlink="http://www.w3.org/1999/xlink" x="0px" y="0px" viewBox="0 0 32 32" enable-background="new 0 0 32 32" xml:space="preserve">
	<path fill="#F5F5F5" d="M24,9.5L24,9.5c0,0.9-0.7,1.5-1.5,1.5h-13C8.7,11,8,10.3,8,9.5v0C8,8.7,8.7,8,9.5,8h13
		C23.3,8,24,8.7,24,9.5z"/>
	<path fill="#F5F5F5" d="M24,16L24,16c0,0.9-0.7,1.5-1.5,1.5h-13C8.7,17.5,8,16.8,8,16v0c0-0.8,0.7-1.5,1.5-1.5h13
		C23.3,14.5,24,15.2,24,16z"/>
	<path fill="#F5F5F5" d="M24,22.5L24,22.5c0,0.9-0.7,1.5-1.5,1.5h-13C8.7,24,8,23.3,8,22.5v0C8,21.7,8.7,21,9.5,21h13
		C23.3,21,24,21.7,24,22.5z"/>
</svg>