<?xml version="1.0" encoding="utf-8"?>
<!DOCTYPE svg PUBLIC "-//W3C//DTD SVG 1.1//EN" "http://www.w3.org/Graphics/SVG/1.1/DTD/svg11.dtd">
<svg version="1.1" viewBox="0 0 32 32" xmlns="http://www.w3.org/2000/svg" xml:space="preserve">
	<path fill="#F5F5F5" d="M21.7,21.6L21.7,21.6c-0.6,0.6-1.5,0.6-2.1,0l-9.2-9.2c-0.6-0.6-0.6-1.5,0-2.1l0,0c0.6-0.6,1.5-0.6,2.1,0l9.2,9.2C22.2,20.1,22.2,21.1,21.7,21.6z"/>
	<path fill="#F5F5F5" d="M21.6,10.3L21.6,10.3c0.6,0.6,0.6,1.5,0,2.1l-9.2,9.2c-0.6,0.6-1.5,0.6-2.1,0l0,0c-0.6-0.6-0.6-1.5,0-2.1l9.2-9.2C20.1,9.8,21.1,9.8,21.6,10.3z"/>
</svg>